<svg xmlns="http://www.w3.org/2000/svg" width="1230" height="354" style=""><rect id="backgroundrect" width="100%" height="100%" x="0" y="0" fill="none" stroke="none" class="" style=""/><g class="currentLayer" style=""><title>Layer 1</title><g fill="#808080" id="svg_1" class=""><path d="m359.6777698651264,7.090877978451821 a51.89632499779503,51.89632499779503 0 0 0 -64.06788575758715,35.84591520466254 l-37.584709598918565,132.54963420828574 l-93.62739045993946,-146.45998936233386 a51.762571582852246,51.762571582852246 0 0 0 -51.093804508138405,-23.94186127475595 a52.29758524262333,52.29758524262333 0 0 0 -42.26607912191553,37.8522164288041 l-69.01676211046966,243.02995495101436 a52.16383182768057,52.16383182768057 0 0 0 35.578408374777,64.46914600241546 a53.501365977108264,53.501365977108264 0 0 0 14.311615398876462,2.407561468969873 a52.030078412737794,52.030078412737794 0 0 0 49.756270358710694,-37.8522164288041 l37.584709598918565,-132.54963420828574 l93.62739045993946,147.12875643704774 a51.62881816790948,51.62881816790948 0 0 0 93.62739045993946,-13.375341494277066 l68.74925528058412,-244.2337356854993 a52.16383182768057,52.16383182768057 0 0 0 -35.578408374777,-64.87040624724375 z" id="svg_2"/><path d="m782.73982132911,7.090877978451821 a51.762571582852246,51.762571582852246 0 0 0 -64.06788575758715,35.84591520466254 l-24.47687493452704,86.53845946797261 h-116.76673124503881 l16.451670037960792,-57.51396842539139 a51.89632499779503,51.89632499779503 0 1 0 -98.9775270576503,-29.024491042581232 l-69.8192826001263,243.02995495101436 a52.030078412737794,52.030078412737794 0 0 0 49.89002377365347,66.87670747138533 a51.762571582852246,51.762571582852246 0 0 0 49.756270358710694,-37.8522164288041 l24.610628349469803,-86.40470605302984 h116.76673124503881 l-16.451670037960792,57.380215010448616 a52.16383182768057,52.16383182768057 0 0 0 35.578408374777,64.46914600241546 a53.501365977108264,53.501365977108264 0 0 0 14.311615398876462,2.407561468969873 a52.030078412737794,52.030078412737794 0 0 0 49.48876352882515,-37.8522164288041 l69.28426894035522,-243.02995495101436 a52.16383182768057,52.16383182768057 0 0 0 -35.578408374777,-64.87040624724375 z" id="svg_3"/><path d="m1219.979734777027,25.816356070439717 a51.495064752966705,51.495064752966705 0 0 0 -72.49435089898171,-10.165259535650572 l-146.19248253244834,111.41659464732795 l15.247889303475858,-55.106406956421516 a51.89632499779503,51.89632499779503 0 1 0 -99.64629413236416,-28.623230797752925 l-68.61550186564135,242.62869470618602 a52.16383182768057,52.16383182768057 0 0 0 35.578408374777,64.46914600241546 a53.501365977108264,53.501365977108264 0 0 0 14.311615398876462,2.0063012241415614 a52.030078412737794,52.030078412737794 0 0 0 49.756270358710694,-37.8522164288041 l29.693258117295095,-104.59517048524665 a18.190464432216814,18.190464432216814 0 0 0 1.6050409793132485,1.6050409793132485 c0.6687670747138535,0.8025204896566244 1.0700273195421655,1.7387943942560198 1.7387943942560198,2.407561468969873 l112.35286855192736,121.71560759792132 a51.495064752966705,51.495064752966705 0 0 0 73.16311797369555,2.808821713798184 a52.29758524262333,52.29758524262333 0 0 0 2.6750682988554133,-73.69813163346663 l-73.16311797369555,-79.44952847600578 l113.95790953124062,-86.67221288291539 a52.16383182768057,52.16383182768057 0 0 0 10.031506120707805,-72.89561114381002 z" id="svg_4"/></g></g></svg>